HIERARCHY
ROOT Hips
{
	OFFSET 0.000000 0.000000 0.000000
	CHANNELS 6 Xposition Yposition Zposition Zrotation Yrotation Xrotation 
	JOINT LHipJoint
	{
		OFFSET 0.000000 0.000000 0.000000
		CHANNELS 3 Zrotation Yrotation Xrotation
		JOINT LeftUpLeg
		{
			OFFSET 1.363060 -1.794630 0.839290
			CHANNELS 3 Zrotation Yrotation Xrotation
			JOINT LeftLeg
			{
				OFFSET 2.448110 -6.726130 0.000000
				CHANNELS 3 Zrotation Yrotation Xrotation
				JOINT LeftFoot
				{
					OFFSET 2.562200 -7.039590 0.000000
					CHANNELS 3 Zrotation Yrotation Xrotation
					JOINT LeftToeBase
					{
						OFFSET 0.157640 -0.433110 2.322550
						CHANNELS 3 Zrotation Yrotation Xrotation
						End Site
						{
							OFFSET 0.000000 0.000000 0.000000
						}
					}
				}
			}
		}
	}
	JOINT RHipJoint
	{
		OFFSET 0.000000 0.000000 0.000000
		CHANNELS 3 Zrotation Yrotation Xrotation
		JOINT RightUpLeg
		{
			OFFSET -1.305520 -1.794630 0.839290
			CHANNELS 3 Zrotation Yrotation Xrotation
			JOINT RightLeg
			{
				OFFSET -2.542530 -6.985550 0.000000
				CHANNELS 3 Zrotation Yrotation Xrotation
				JOINT RightFoot
				{
					OFFSET -2.568260 -7.056230 0.000000
					CHANNELS 3 Zrotation Yrotation Xrotation
					JOINT RightToeBase
					{
						OFFSET -0.164730 -0.452590 2.363150
						CHANNELS 3 Zrotation Yrotation Xrotation
						End Site
						{
							OFFSET 0.000000 0.000000 0.000000
						}
					}
				}
			}
		}
	}
}
MOTION
Frames: 30
Frame Time: 0.008333
-0.362374 16.594437 -1.778099 -174.404490 50.021827 -157.301462 -13.989696 1.941908 -0.469327 -5.195175 -0.452840 -18.588279 0.975140 3.357554 59.830226 2.628628 16.959684 -1.071208 1.754900 -0.000000 -24.752500 7.193785 -0.130858 -0.479948 7.587244 -3.988942 -39.137103 2.081224 -1.867724 29.655139 -1.553433 -7.431397 -0.476607 -1.656900 0.000000 -58.565600
-0.227396 16.603088 -1.824991 -174.488297 48.806848 -157.352490 -14.065438 1.779500 -0.581663 -5.120959 -0.003651 -20.317482 1.097776 3.494016 62.093617 2.897887 18.763658 -1.797282 1.785900 -0.000000 -21.351000 7.168250 -0.158380 -0.501625 7.580339 -3.853612 -38.457514 2.023164 -1.832675 30.128239 -1.775818 -8.302427 -1.802151 -1.597000 0.000000 -59.054400
-0.093451 16.617395 -1.871983 -174.695956 47.605851 -157.477261 -14.100111 1.622962 -0.678983 -5.210137 0.341274 -22.034458 1.200502 3.616703 64.100427 3.108595 20.133270 -2.540928 1.726699 0.000000 -18.964500 7.174960 -0.176365 -0.489679 7.388329 -3.631429 -37.666253 1.955723 -1.780432 30.362525 -1.968199 -9.049556 -2.870522 -1.524200 0.000000 -59.598600
0.039527 16.636737 -1.919897 -175.017190 46.426222 -157.670428 -14.095728 1.477893 -0.761539 -5.462363 0.596497 -23.727704 1.281958 3.723782 65.839080 3.252997 21.029261 -3.287089 1.587500 -0.000000 -17.387500 7.215972 -0.187140 -0.453628 7.025616 -3.365157 -36.780477 1.878415 -1.718320 30.387365 -2.117742 -9.644863 -3.608718 -1.465000 0.000000 -60.259600
0.171186 16.660395 -1.970059 -175.416492 45.271046 -157.903704 -14.059812 1.346685 -0.827442 -5.851819 0.778835 -25.396382 1.341185 3.814709 67.302403 3.328019 21.440849 -4.010787 1.390000 -0.000000 -16.491100 7.285190 -0.196440 -0.402185 6.533672 -3.088915 -35.818168 1.795520 -1.650945 30.229330 -2.217259 -10.070685 -4.005576 -1.435600 0.000000 -60.886100
0.301116 16.687824 -2.023324 -175.869456 44.143508 -158.162503 -13.997570 1.230595 -0.876241 -6.358907 0.901556 -27.029948 1.376755 3.888924 68.479313 3.335940 21.392913 -4.686760 1.162100 -0.000001 -16.143701 7.377635 -0.208121 -0.346672 5.949839 -2.845107 -34.792076 1.711769 -1.582153 29.909479 -2.263626 -10.316975 -4.070750 -1.443300 -0.000000 -61.585100
0.428873 16.718524 -2.080406 -176.346864 43.043913 -158.425752 -13.915725 1.128593 -0.905951 -6.952158 0.974929 -28.624936 1.388218 3.946439 69.364182 3.283223 20.936806 -5.284286 0.934100 -0.000000 -16.304200 7.484643 -0.226317 -0.295890 5.320950 -2.664543 -33.717062 1.634111 -1.513618 29.449133 -2.259629 -10.382728 -3.866821 -1.480100 -0.000000 -62.241800
0.553901 16.752114 -2.141830 -176.820622 41.972353 -158.676365 -13.820374 1.038306 -0.916357 -7.600807 1.009315 -30.174689 1.375507 3.987752 69.953254 3.180365 20.148560 -5.783232 0.729001 0.000000 -16.918099 7.597458 -0.253841 -0.257788 4.690078 -2.570482 -32.602432 1.568590 -1.445537 28.861610 -2.212358 -10.282928 -3.461727 -1.533601 0.000000 -62.917600
0.675812 16.788228 -2.207806 -177.267317 40.927278 -158.899527 -13.716670 0.956468 -0.907434 -8.275006 1.012563 -31.675679 1.339459 4.013515 70.249592 3.041229 19.122796 -6.177452 0.559500 0.000000 -17.911000 7.707648 -0.292432 -0.237383 4.095679 -2.575056 -31.456991 1.520507 -1.376961 28.159739 -2.131463 -10.040848 -2.937110 -1.587500 -0.000000 -63.591600
0.794342 16.826593 -2.278185 -177.669959 39.907364 -159.086692 -13.608298 0.879452 -0.880596 -8.948929 0.992296 -33.124955 1.281376 4.024615 70.261866 2.881686 17.963836 -6.480045 0.426900 -0.000000 -19.165000 7.808290 -0.342507 -0.237467 3.567665 -2.680537 -30.287238 1.493205 -1.306396 27.354556 -2.027483 -9.687957 -2.366326 -1.628800 0.000000 -64.267399
0.909345 16.866896 -2.352645 -178.015919 38.910993 -159.233052 -13.497520 0.803968 -0.838434 -9.603262 0.955670 -34.520115 1.202878 4.022071 70.004823 2.717811 16.774861 -6.722518 0.324000 -0.000001 -20.516200 7.894414 -0.403648 -0.258725 3.126257 -2.881045 -29.097591 1.488080 -1.232268 26.455557 -1.910082 -9.258519 -1.804738 -1.650300 -0.000000 -64.957700
1.021069 16.908808 -2.430580 -178.303595 37.937891 -159.341174 -13.384563 0.727783 -0.784220 -10.225630 0.908739 -35.859279 1.105508 4.006934 69.497925 2.563992 15.647203 -6.948261 0.239500 0.000000 -21.780400 7.963973 -0.474608 -0.300076 2.780528 -3.165206 -27.890681 1.504160 -1.153437 25.472257 -1.786996 -8.784661 -1.284422 -1.651200 -0.000000 -65.676801
1.129761 16.951929 -2.511291 -178.533146 36.987376 -159.415565 -13.268548 0.649604 -0.721508 -10.810322 0.856498 -37.140765 0.990766 3.980132 68.762810 2.431473 14.651276 -7.202753 0.162400 -0.000000 -22.791300 8.017076 -0.553847 -0.359201 2.529958 -3.517748 -26.668496 1.538787 -1.069527 24.414523 -1.663633 -8.293673 -0.812466 -1.635500 0.000000 -66.436000
1.236042 16.995781 -2.594002 -178.714058 36.060963 -159.465439 -13.147172 0.569469 -0.653541 -11.356592 0.802530 -38.363278 0.859865 3.942396 67.820746 2.327552 13.830968 -7.522570 0.084400 0.000000 -23.436500 8.056376 -0.639463 -0.432806 2.365389 -3.921308 -25.433435 1.587558 -0.981123 23.293632 -1.543006 -7.805032 -0.374238 -1.609900 0.000000 -67.237400
1.340414 17.039808 -2.678071 -178.854562 35.160445 -159.498364 -13.017743 0.488308 -0.582708 -11.868667 0.749021 -39.526637 0.713997 3.894053 66.690185 2.255718 13.203224 -7.928751 0.000200 0.000000 -23.672900 8.086038 -0.729576 -0.516990 2.270752 -4.358401 -24.190000 1.645242 -0.889865 22.123465 -1.426203 -7.330956 0.061451 -1.581700 0.000001 -68.081399
1.443574 17.083403 -2.762791 -178.967028 34.287941 -159.523619 -12.877759 0.407599 -0.510766 -12.350352 0.698522 -40.629735 0.554310 3.835076 65.385228 2.215947 12.760458 -8.422366 -0.092600 -0.000000 -23.526200 8.110746 -0.822854 -0.607473 2.228422 -4.809765 -22.941608 1.706099 -0.798091 20.919161 -1.313492 -6.879429 0.531748 -1.557200 -0.000000 -68.938600
1.546140 17.125872 -2.847875 -179.063038 33.448549 -159.546157 -12.724609 0.329777 -0.438209 -12.810531 0.651591 -41.674390 0.381892 3.765251 63.914879 2.205785 12.478187 -8.986713 -0.193700 -0.000000 -23.072799 8.135971 -0.917134 -0.700286 2.216267 -5.260264 -21.699673 1.764784 -0.708962 19.702139 -1.203895 -6.449717 1.072168 -1.540200 0.000000 -69.796400
1.648562 17.166543 -2.933050 -179.151277 32.645074 -159.570808 -12.557096 0.257050 -0.364917 -13.254791 0.609850 -42.658440 0.198145 3.683774 62.283036 2.220560 12.319886 -9.589972 -0.299700 -0.000001 -22.428100 8.165935 -1.011526 -0.791530 2.216325 -5.694193 -20.471117 1.816918 -0.625595 18.493319 -1.097048 -6.041073 1.706764 -1.531600 -0.000000 -70.608900
1.751343 17.204705 -3.018262 -179.242387 31.881357 -159.602003 -12.374552 0.191952 -0.290023 -13.689748 0.573436 -43.579246 0.004304 3.589753 60.489086 2.254400 12.245394 -10.192722 -0.404900 0.000000 -21.721400 8.204365 -1.104556 -0.878421 2.211439 -6.101061 -19.265781 1.859171 -0.550939 17.315562 -0.992755 -5.649391 2.445718 -1.529701 0.000000 -71.372600
1.854529 17.239661 -3.103852 -179.338615 31.159906 -159.637817 -12.177899 0.136562 -0.211679 -14.120007 0.540800 -44.434263 -0.198188 3.482102 58.531016 2.301009 12.216613 -10.756465 -0.502100 0.000000 -21.076600 8.253025 -1.194999 -0.958949 2.189195 -6.473926 -18.094756 1.890317 -0.487088 16.192403 -0.891318 -5.268681 3.277162 -1.529800 -0.000000 -72.069800
1.958297 17.270803 -3.190104 -179.443688 30.483070 -159.678170 -11.968939 0.092262 -0.128235 -14.546445 0.509640 -45.218157 -0.408284 3.359681 56.405298 2.354103 12.200406 -11.249299 -0.583900 -0.000000 -20.594400 8.312057 -1.281538 -1.032543 2.143121 -6.807831 -16.964527 1.910449 -0.434967 15.144255 -0.793739 -4.893554 4.168174 -1.525400 0.000000 -72.650700
2.062414 17.297501 -3.277578 -179.554765 29.851012 -159.719724 -11.750847 0.059501 -0.036996 -14.966722 0.475777 -45.925900 -0.625005 3.221061 54.110254 2.408165 12.170883 -11.652286 -0.645000 -0.000000 -20.338000 8.379703 -1.363469 -1.098705 2.072112 -7.100105 -15.880469 1.920995 -0.394184 14.186029 -0.701506 -4.522135 5.075152 -1.511100 -0.000000 -73.129101
2.166783 17.319320 -3.366761 -179.670104 29.263279 -159.761282 -11.527064 0.037782 0.064679 -15.375137 0.433124 -46.550577 -0.847779 3.064548 51.645746 2.458836 12.110098 -11.960756 -0.682900 0.000000 -20.328300 8.453447 -1.440255 -1.158267 1.979027 -7.351411 -14.841193 1.923867 -0.363266 13.323617 -0.616216 -4.156390 5.951811 -1.483600 -0.000000 -73.580300
2.270902 17.335856 -3.458255 -179.780247 28.718214 -159.796730 -11.301810 0.025165 0.179882 -15.761809 0.374533 -47.090480 -1.075880 2.888339 49.016709 2.503202 12.007013 -12.184578 -0.698700 -0.000000 -20.542600 8.529091 -1.511706 -1.212061 1.872243 -7.561215 -13.846062 1.922019 -0.339862 12.559377 -0.539077 -3.800157 6.747701 -1.441600 0.000000 -74.039100
2.374490 17.346782 -3.552626 -179.877027 28.214825 -159.817886 -11.079180 0.018547 0.312288 -16.112017 0.291745 -47.551696 -1.308432 2.690750 46.234483 2.539636 11.855605 -12.344512 -0.696600 -0.000000 -20.920700 8.601678 -1.577901 -1.260774 1.765489 -7.727318 -12.894888 1.918604 -0.321117 11.892881 -0.470799 -3.459074 7.414115 -1.386100 0.000000 -74.464800
2.477293 17.351944 -3.650247 -179.953396 27.751074 -159.819598 -10.862536 0.014368 0.465115 -16.411206 0.177531 -47.940542 -1.544159 2.469663 43.313272 2.567652 11.654857 -12.466295 -0.682601 -0.000000 -21.377901 8.667208 -1.639405 -1.305559 1.672019 -7.850581 -11.982800 1.916118 -0.304338 11.314276 -0.411537 -3.141098 7.925346 -1.321500 0.000000 -74.913400
2.578931 17.351302 -3.751445 -179.999878 27.324239 -159.796263 -10.655229 0.008573 0.641495 -16.644538 0.026734 -48.268021 -1.780764 2.222969 40.272090 2.587408 11.406358 -12.575279 -0.663000 0.000000 -21.820500 8.721848 -1.697374 -1.347358 1.605067 -7.933082 -11.105160 1.916791 -0.287269 10.810966 -0.360851 -2.853172 8.273612 -1.253000 0.000000 -75.436900
2.679236 17.344925 -3.856354 179.990021 26.931995 -159.742400 -10.459386 -0.002779 0.842989 -16.798640 -0.161696 -48.549246 -2.015088 1.949047 37.132841 2.599393 11.114343 -12.690078 -0.642799 -0.000000 -22.165600 8.763177 -1.752694 -1.387632 1.577481 -7.977754 -10.257838 1.922263 -0.268297 10.368921 -0.317747 -2.598603 8.467194 -1.185400 -0.000000 -76.024600
2.778043 17.333046 -3.964954 -179.979546 26.571064 -159.658215 -10.277494 -0.022936 1.069955 -16.864616 -0.382389 -48.797975 -2.242839 1.647036 33.920283 2.603708 10.783990 -12.818371 -0.624700 -0.000000 -22.361000 8.789602 -1.807076 -1.427652 1.598172 -7.991986 -9.434042 1.933385 -0.246735 9.972827 -0.280845 -2.377241 8.534707 -1.122100 -0.000000 -76.695300
2.875378 17.315972 -4.077118 -179.906512 26.238393 -159.544930 -10.111085 -0.054201 1.319584 -16.839314 -0.622535 -49.027676 -2.459101 1.317647 30.660797 2.599813 10.421283 -12.954602 -0.608300 0.000001 -22.398100 8.801252 -1.861836 -1.469419 1.673737 -7.985037 -8.626742 1.950405 -0.222700 9.607584 -0.248515 -2.185204 8.516806 -1.065101 0.000000 -77.421401
